<svg xmlns="http://www.w3.org/2000/svg" width="200" height="200" class="icon" viewBox="0 0 1024 1024"><path fill="#f44336" d="M979.038 323.027h-467.02c-104.376-.102-189.073 84.428-189.178 188.805a189 189 0 0 0 24.126 92.582L113.457 203.752C283.536-16.374 599.86-56.944 819.987 113.135a503.7 503.7 0 0 1 159.051 209.892"/><path fill="#ffc107" d="M1015.996 512.019c-.232 278.243-225.735 503.745-503.977 503.977a449.5 449.5 0 0 1-62.997-4.2l226.79-405.281c51.978-90.488 20.993-205.972-69.298-258.289a187.23 187.23 0 0 0-94.076-25.199h466.598a496.9 496.9 0 0 1 36.96 188.992"/><path fill="#4caf50" d="m675.811 606.515-226.79 405.282h-.419C172.62 976.928-22.84 724.932 12.028 448.949a503.7 503.7 0 0 1 101.43-245.197l233.508 400.662 1.26 2.1c52.073 90.46 167.618 121.58 258.078 69.508a189 189 0 0 0 69.507-69.507"/><path fill="#f44336" d="M678.411 608.015c-52.9 91.896-170.278 123.508-262.174 70.61a192 192 0 0 1-70.61-70.61l-1.28-2.134c-51.84-92.498-18.878-209.507 73.62-261.346a192 192 0 0 1 94.052-24.51h.426a190.2 190.2 0 0 1 95.57 25.6c91.725 53.15 123.2 170.466 70.396 262.39"/><path fill="#2196f3" d="M675.811 606.515c-52.073 90.46-167.617 121.578-258.077 69.507a189 189 0 0 1-69.508-69.507l-1.26-2.1c-51.03-91.053-18.582-206.234 72.47-257.264a189 189 0 0 1 92.583-24.126h.419a187.23 187.23 0 0 1 94.076 25.2c90.293 52.318 121.276 167.802 69.297 258.29"/><path fill="#fafafa" d="M511.306 722.01a208.5 208.5 0 0 1-104.282-27.97 210.77 210.77 0 0 1-76.982-77.025c-57.987-100.437-23.575-228.864 76.862-286.851a210 210 0 0 1 105.117-28.134c115.973-.09 210.064 93.854 210.152 209.827a210 210 0 0 1-28.134 105.158A211.17 211.17 0 0 1 511.306 722.01m1.09-377.983a167.53 167.53 0 0 0-146.111 83.997c-46.39 80.44-18.787 183.257 61.652 229.646s183.257 18.787 229.646-61.652c46.39-80.35 18.86-183.092-61.489-229.483a168 168 0 0 0-83.656-22.506h-.041z"/></svg>